<svg xmlns="http://www.w3.org/2000/svg" viewBox="0 0 100 100">
  <!-- Three-masted whaler, side profile (placeholder). Single-fill paths. -->
  <!-- Hull -->
  <path d="M 8 64 Q 50 70 92 64 L 86 76 Q 50 80 14 76 Z" />
  <!-- Deck line -->
  <path d="M 14 64 L 86 64 L 84 66 L 16 66 Z" />
  <!-- Foremast -->
  <rect x="24" y="22" width="2" height="42" />
  <!-- Mainmast -->
  <rect x="49" y="14" width="2" height="50" />
  <!-- Mizzenmast -->
  <rect x="74" y="22" width="2" height="42" />
  <!-- Foresail -->
  <path d="M 19 28 L 25 28 L 25 56 L 16 56 Z" />
  <!-- Mainsail -->
  <path d="M 43 22 L 50 22 L 50 60 L 39 60 Z" />
  <!-- Mizzensail -->
  <path d="M 69 28 L 75 28 L 75 56 L 66 56 Z" />
  <!-- Top sails (smaller, weathered shapes) -->
  <path d="M 22 18 L 28 18 L 27 26 L 22 26 Z" />
  <path d="M 47 12 L 53 12 L 53 20 L 47 20 Z" />
  <path d="M 72 18 L 78 18 L 77 26 L 72 26 Z" />
</svg>
