<svg xmlns="http://www.w3.org/2000/svg" viewBox="0 0 100 100">
  <!-- Whale fluke breaking water (placeholder). -->
  <!-- Tail stalk -->
  <path d="M 47 70 Q 48 60 50 50 Q 52 60 53 70 Z" />
  <!-- Fluke -->
  <path d="M 50 50
           Q 30 32 20 36
           Q 28 42 38 46
           Q 50 50 62 46
           Q 72 42 80 36
           Q 70 32 50 50 Z" />
  <!-- Ripple lines below -->
  <path d="M 18 80 Q 30 76 42 80 Q 54 84 66 80 Q 78 76 90 80 L 90 84 Q 78 80 66 84 Q 54 88 42 84 Q 30 80 18 84 Z" />
  <path d="M 26 90 Q 38 87 50 90 Q 62 93 74 90 L 74 93 Q 62 90 50 93 Q 38 96 26 93 Z" />
</svg>
